<?xml version="1.0" encoding="UTF-8" standalone="no"?>
<svg
   xmlns:dc="http://purl.org/dc/elements/1.1/"
   xmlns:cc="http://creativecommons.org/ns#"
   xmlns:rdf="http://www.w3.org/1999/02/22-rdf-syntax-ns#"
   xmlns:svg="http://www.w3.org/2000/svg"
   xmlns="http://www.w3.org/2000/svg"
   xmlns:sodipodi="http://sodipodi.sourceforge.net/DTD/sodipodi-0.dtd"
   xmlns:inkscape="http://www.inkscape.org/namespaces/inkscape"
   height="$height"
   viewBox="0 0 340 340"
   inkscape:version="1.0.2 (e86c870879, 2021-01-15)">
<g
   id="g215"
   transform="translate(-138.09198,-61.341341)">
	<path
   fill="$colour1"
   d="m 231.9,46.907136 c 0,-0.09815 -0.1,-0.09815 -0.1,-0.196294 0,0 0,0 0,-0.09815 0.2,0.29444 0.3,0.29444 0.3,0.29444 -0.2,0 -0.2,0 -0.2,0 z"
   id="path161"
   style="stroke-width:0.99069" />
	<path
   fill="$colour1"
   d="m 330.83388,113.25424 c 0,0 0,0 0,0 0.10938,-0.0981 0.10938,-0.0981 0,0 0,0 -0.10937,0.0982 -0.10937,0.0982 0,0 0.10937,-0.0982 0.10937,-0.0982 z"
   id="path163"
   style="stroke-width:1.03608" />


	<path
   fill="$colour1"
   d="m 138.09198,265.59645 c 0.5,0.5 0.1,0.1 0,0 z"
   id="path169" />
	<path
   fill="$colour1"
   d="m 177.39198,174.88683 c -0.1,0 -0.1,0 -0.2,-0.0982 0,0 0,0 0.2,0.0982 0,0 0,0 0,0 z"
   id="path171"
   style="stroke-width:0.99069" />
	<path
   fill="$colour1"
   style="stroke-width:1.03608"
   d="m 371.99446,129.39796 c 0.10937,-0.0982 0.10937,0 0,0 z"
   id="path295" /><path
   fill="$colour1"
   style="stroke-width:1.03608"
   d="m 357.33847,106.62794 c -0.10938,0 -0.21875,0 0,0 z"
   id="path293" /><path
   fill="$colour1"
   style="stroke-width:1.03608"
   d="m 254.30901,348.26489 c 0.10937,0.0982 0.10937,0 0,0 z"
   id="path291" /><path
   fill="$colour1"
   style="stroke-width:1.03608"
   d="m 254.30901,347.57787 c 0.10937,-0.0982 0.10937,-0.1963 0,0 z"
   id="path289" /><path
   fill="$colour1"
   style="stroke-width:1.03608"
   d="m 257.48083,344.73161 c 0.10937,0 0.10937,0 0,0 z"
   id="path287" /><path
   fill="$colour1"
   style="stroke-width:1.03608"
   d="m 299.4801,351.30744 c -0.10937,0 -0.21875,0.0981 0,0 z"
   id="path285" /><path
   fill="$colour1"
   style="stroke-width:1.03608"
   d="m 285.80846,358.27585 c -0.10937,-0.29444 0,-0.0981 0,0 z"
   id="path283" /><path
   fill="$colour1"
   style="stroke-width:1.03608"
   d="m 345.85429,347.77416 c 0,-0.0981 0,0 0,0 z"
   id="path281" /><path
   fill="$colour1"
   style="stroke-width:1.03608"
   d="M 415.62467,107.3721 C 399.54683,92.94455 380.84403,81.559543 360.06314,73.707814 338.51664,65.561645 315.54829,61.341341 291.9237,61.341341 c -5.57803,0 -11.26543,0.29444 -16.95283,0.785173 l -10.60919,0.88332 9.51546,4.220304 c 19.57778,8.538755 37.07748,20.708934 51.18661,35.627212 7.87486,8.34247 14.65599,17.4701 20.12465,27.18661 1.42185,2.45366 2.62495,4.90733 3.93743,7.45914 1.96871,4.12216 3.71868,8.24431 5.24991,12.56277 1.96871,5.49621 2.18746,10.89427 2.73432,16.48863 0.65624,5.59435 0.87499,11.385 -1.64059,16.78307 -5.24991,11.48315 -17.93719,21.39596 -28.54638,28.95324 -6.99988,5.00548 -21.10901,10.01096 -17.93719,20.21821 0.65624,2.06107 1.6406,4.12215 3.06245,5.88879 1.31248,1.76664 2.95307,3.43513 4.81242,4.90733 4.48429,3.33699 7.98423,5.8888 8.20298,11.67945 0.32812,6.28138 -7.10925,7.65543 -10.1717,12.17018 -2.51558,3.63142 -2.8437,9.32393 -0.21875,12.95535 -5.46865,1.86479 -10.93731,5.29992 -9.7342,11.28686 0.87498,4.4166 3.82806,7.361 0.43749,11.38501 -2.73433,3.14069 -6.8905,5.88879 -10.60919,8.04802 -1.96872,1.17776 -3.93743,2.15922 -5.90615,3.14069 -1.31247,0.68703 -2.73432,1.37405 -4.0468,2.06108 -24.60895,12.36647 -51.73348,19.53117 -80.06111,19.53117 -7.76549,0 -15.53098,-0.49073 -23.29647,-1.57034 l -10.49981,-1.37405 8.0936,6.08509 c 15.42161,11.67944 32.81193,20.80708 51.62411,27.08846 19.46841,6.47768 40.03055,9.81466 61.03018,9.81466 23.62459,0 46.59294,-4.12216 68.13944,-12.36647 20.89026,-7.94988 39.59306,-19.23674 55.67091,-33.66429 16.07784,-14.42755 28.65575,-31.21062 37.51497,-49.95662 9.07797,-19.33488 13.78101,-39.94567 13.78101,-61.14534 0,-21.19967 -4.59367,-41.81045 -13.78101,-61.14534 -8.64047,-18.746 -21.32775,-35.52906 -37.4056,-49.95661 z"
   id="path181" />
	<path
   fill="$colour1"
   d="m 214.13092,166.43265 2.29684,5.39807 2.29683,-5.39807 c 4.26555,-9.91281 12.24979,-18.05897 22.64023,-23.1626 l 0.32812,-0.0981 c -10.49981,-5.20177 -18.7028,-13.54424 -22.85897,-23.65333 l -2.40621,-5.79066 -2.40621,5.79066 c -4.15618,10.10909 -12.35916,18.5497 -22.85898,23.65333 l 0.32812,0.0981 c 10.28107,5.00548 18.37468,13.24979 22.64023,23.1626 z"
   id="path203"
   style="stroke-width:1.03608" />
	<path
   fill="$colour1"
   d="m 299.0355,163.6252 1.85935,4.22031 1.85934,-4.22031 c 3.39056,-7.75358 9.62483,-14.23125 17.82781,-18.25527 l 0.21875,-0.0981 c -8.31236,-4.02401 -14.656,-10.69798 -17.93719,-18.64786 l -1.85934,-4.61289 -1.85934,4.61289 c -3.2812,7.94988 -9.62484,14.5257 -17.93719,18.64786 v 0 l 0.21874,0.0981 c 7.87487,4.12216 14.21851,10.50169 17.60907,18.25527 z"
   id="path205"
   style="stroke-width:1.03608" />

	<path
   fill="$colour1"
   d="m 187.16984,262.48279 c 6.56238,3.23883 11.59355,8.4406 14.32787,14.62384 l 1.53123,3.43513 1.53122,-3.43513 c 2.73433,-6.28138 7.76549,-11.48315 14.32788,-14.62384 l 0.21874,-0.0981 c -6.67176,-3.23884 -11.81229,-8.6369 -14.43725,-15.01643 l -1.53122,-3.72957 -1.53122,3.72957 c -2.62496,6.37953 -7.76549,11.67944 -14.43725,15.01643 z"
   id="path209"
   style="stroke-width:1.03608" />
	<path
   fill="$colour1"
   d="m 285.90105,230.36692 v 0 c -6.67176,-3.23883 -11.8123,-8.6369 -14.43725,-15.01643 l -1.53123,-3.72957 -1.53122,3.72957 c -2.62495,6.37953 -7.76549,11.67945 -14.43725,15.01643 l 0.21875,0.0982 c 6.56238,3.23884 11.59355,8.44061 14.32787,14.62384 l 1.53123,3.43514 1.53122,-3.43514 c 2.73433,-6.28138 7.76549,-11.48315 14.32788,-14.62384 z"
   id="path211"
   style="stroke-width:1.03608" />
</g>
</svg>
